<svg xmlns="http://www.w3.org/2000/svg" xmlns:xlink="http://www.w3.org/1999/xlink" class="el-tooltip" color-interpolation-filters="sRGB" version="1" viewBox="0 0 340 250" style="margin:auto"><g fill="#000057" class="icon-svg-group iconsvg"><g class="iconsvg-imagesvg" transform="translate(77.61999512 103.06585884)"><path fill="none" d="M0 0h60v43.86828267H0z"/><svg width="60" height="43.86828267" class="imagesvg-svg"><svg xmlns="http://www.w3.org/2000/svg" viewBox="0 0 355.61 260"><defs><linearGradient id="a" x1="175.37" x2="144.03" y1="186.35" y2="216.33" gradientUnits="userSpaceOnUse"><stop offset="0" stop-color="#000057"/><stop offset="1" stop-color="#fff"/></linearGradient><linearGradient id="b" x1="176.42" x2="143.42" y1="78.8" y2="111.79" gradientUnits="userSpaceOnUse"><stop offset="0" stop-color="#000057"/><stop offset="1" stop-color="#fff"/></linearGradient></defs><g style="isolation:isolate"><path fill="#43c0ff" d="M130 200.78L200.78 130l20.58-10L260 130 130 260l-10-26.2z"/><path fill="url(#a)" d="M130 200.78L159.75 171l26 33.19L130 260z" style="mix-blend-mode:multiply"/><path fill="#43c0ff" d="M225.61 260L95.6 130l130-130 130 130zm-70.78-130l70.78 70.78L296.39 130l-70.78-70.78z"/><path fill="url(#b)" d="M95.6 130l78.56-78.56L201 83.85 154.83 130z" style="mix-blend-mode:multiply"/><path fill="#43c0ff" d="M130 260L0 130 130 0l130 130h-59.22L130 59.22 59.22 130 130 200.78z"/></g></svg></svg></g><path d="M166.41999512 109.02000038h6.96q.88-1.64 1.16-1.98.28-.34.82-.34.54 0 2.86 1.76t2.32 2.24q0 .48-1.52 1.08-.32 3.88-.6 5.26-.28 1.38-.88 2.14-.6.76-1.88 1.26-1.28.5-2.6.5-1.16 0-1.16-1.04 0-1.24-.78-1.9-.78-.66-2.62-1.22-.4-.12-.4-.26t.68-.14q3.24 0 3.88-.2.64-.2.8-.76.16-.56.32-2.04t.2-3.04h-7.28q-.16.24-.96.52v12h8.76q.64-1 .84-1.26.2-.26.52-.26.56 0 2.6 1.2t2.46 1.54q.42.34.42.76t-.76.58q-.76.16-1.36 1.8-1.44 3.92-4.12 7.04 2.92 2.2 6.76 3.52.52.16.52.36 0 .2-.86.62t-1.56 1.18q-.7.76-1.62 2.44-.2.32-.5.32t-1.08-.56q-.78-.56-2.3-1.94-1.52-1.38-2.6-2.74-2.68 2.28-6.12 3.96v.44q0 .36-.12.54-.12.18-.78.46t-1.88.54q-1.22.26-1.66.26-.24 0-.24-.4l.08-1.88q.08-1.92.08-3.48v-20.76h-6.08v6.12q5.48-1.04 5.56-1.04.28 0 .28.16t-.52.44l-5.32 2.92v12.64q0 2.04-.62 2.98t-2.22 1.38q-1.6.44-2.64.44t-1.16-1q-.12-1.32-.78-1.96-.66-.64-1.7-.94-1.04-.3-1.04-.48t.52-.18l1.64.04q2.08 0 2.68-.38.6-.38.6-1.38v-8.48q-2.2 1.2-2.96 1.74-.76.54-.92.54-.16 0-.22-.16t-.58-1.88q-.52-1.72-.92-3.68 3.2-.44 5.6-.88v-6.96h-3.4q-.96 0-1.72.24l-.68-1.72q.92.16 2 .16h3.8v-5.08q0-2.44-.16-4.32 1.68.08 3.36.26t1.92.26q.24.08.36.22t.12.3q0 .52-.88.92v7.44h.76q.88-1.68 1.24-2.18.36-.5.6-.5t1.3.82q1.06.82 2.18 1.94v-6.08q0-2-.08-3.56 3.12.84 5.28 2.76zm6 22.8q1.8-3.72 2.36-7.64h-6.28q.96 4.28 3.92 7.64zm-4.96-7.64h-1.72v16.28q2.68-2.16 4.64-5.12-2.48-4.36-2.92-11.16zm37.36-13.12q-3.32 5.08-7.8 8.86-4.48 3.78-8.18 5.64-3.7 1.86-4.26 1.86-.08 0-.08-.04 0-.16.48-.48 6.32-4.32 10.06-9.42t5.5-11.38q2.4.56 4.24 1.08 1.84.52 2.38.78.54.26.54.56 0 .3-.6.5t-1.56 1.24q2 3.68 6.58 6.4t10.98 4q.44.08.44.28t-.48.32q-1.28.32-2.48 1.58t-1.92 2.86q-.12.28-.36.28-.56 0-4.46-2.54t-5.98-5.52q-2.08-2.98-3.04-6.86zm-4.04 7.32q6.28.6 6.28 1.4 0 .36-.96.92v17.64q0 1.32.04 2.8l.08 1.36q0 .28-.26.56t-1.48.56q-1.22.28-2.48.28t-1.26-.76l.08-1.56q.04-1.6.04-3.6v-16.04q0-2-.08-3.56zm30.2.28v-6.08q-2.8.32-5 .32-.92 0-.92-.2t.96-.4q2.76-.64 6-2.08t5.8-3.16q1.28 1.12 2.4 2.3 1.12 1.18 1.48 1.68.36.5.36.66 0 .4-.7.3-.7-.1-2.04-.1t-3.1.12q-.24.48-.96.76v5.88h1.16q1-1.76 1.42-2.32.42-.56.7-.56.28 0 1.12.7.84.7 1.88 1.82 0-2-.12-3.48 2.68.76 4.64 1.64h4.12q1.8-5.28 2.72-9.92 1.8.68 3.66 1.58t2.12 1.14q.26.24.26.44 0 .44-.84.44-.44 0-1.88 1.28t-5.04 5.04h1.88q.4-.64.86-1.28.46-.64.56-.72.1-.08.26-.08.48 0 2.66 1.62t2.18 2.28q0 .66-1.44.86v5.48q0 .68.04 1.16l.08.88q0 .28-.26.46t-.92.46q-.66.28-1.54.36.12.48-.8.88v7.92q0 .92.2 1.14.2.22 1.1.22.9 0 1.32-.32.42-.32.88-1.54t1.34-4.34q.12-.44.34-.44.22 0 .14.44-.36 1.72-.36 2.98t.42 2.14q.42.88 1.42 1.52.84.56.84 1.24 0 .68-1.22 1.76t-5.3 1.08q-4.08 0-4.9-1.02-.82-1.02-.82-3.34v-6.92q0-2.72-.12-4.48 2.2.2 3.24.4v-1.08h-7.08v.68q1.36.16 2.12.36.76.2.76.52t-.34.52q-.34.2-.44.54-.1.34-.18 1.5-.2 3.2-.76 4.84-.56 1.64-1.84 3.7-1.28 2.06-4.76 3.46-3.48 1.4-4.08 1.4-.2 0-.2-.16t.56-.48q2.4-1.36 3.5-2.4 1.1-1.04 1.64-2.24.54-1.2 1.1-3.18.56-1.98.56-4t-.08-3.26l-1.64.16q-.68 0-.64-.44.08-.92.08-2.96v-4.76h-6.28v1.92q5.64.88 5.64 4.64 0 .96-.74 1.7t-1.64.74q-.9 0-1.4-.52-.5-.52-.5-1.6 0-2.12-1.36-3.76v17.68q0 1.04-.3 1.5-.3.46-1.26.8t-2.36.34q-.48 0-.48-.48l.04-1.64q.08-1.64.08-3.6v-9.32q-1.4 2.68-3.92 5.04t-2.88 2.36q-.04 0-.04-.08 0-.2.32-.64 2.6-3.52 3.76-6.84 1.16-3.32 1.84-8.24h-3.64q-.8 0-1.44.44l-1.04-1.88q.96.12 2 .12h5.04zm15.2 6.2h7.08v-7.08h-6.04q-.36.52-1.04.8v6.28zm-4.64-16.8q2.04 0 3.9.62 1.86.62 2.74 1.78.88 1.16.88 2.22 0 1.06-.82 1.92-.82.86-1.98.86-.68 0-1.42-.44-.74-.44-.74-2.08 0-2.84-2.64-4.4-.4-.24-.4-.36t.48-.12z"/></g></svg>